<?xml version="1.0" standalone="no"?>
<!DOCTYPE svg PUBLIC "-//W3C//DTD SVG 20010904//EN"
 "http://www.w3.org/TR/2001/REC-SVG-20010904/DTD/svg10.dtd">
<svg version="1.0" xmlns="http://www.w3.org/2000/svg"
 width="644.000000pt" height="644.000000pt" viewBox="0 0 644.000000 644.000000"
 preserveAspectRatio="xMidYMid meet">
<metadata>
Created by potrace 1.11, written by Peter Selinger 2001-2013
</metadata>
<g transform="translate(0.000000,644.000000) scale(0.100000,-0.100000)"
fill="#000000" stroke="none">
<path d="M1665 6335 c-83 -24 -137 -98 -150 -205 -3 -30 -8 -62 -10 -70 -2 -8
-7 -44 -10 -80 -3 -36 -8 -72 -10 -80 -2 -8 -7 -40 -10 -70 -3 -30 -8 -66 -11
-80 -2 -14 -6 -43 -9 -65 -2 -22 -6 -53 -9 -70 -2 -16 -8 -54 -11 -84 -4 -30
-8 -63 -11 -74 -2 -10 -6 -45 -9 -76 -3 -31 -8 -67 -10 -81 -3 -14 -7 -47 -10
-75 -4 -27 -10 -75 -15 -105 -5 -30 -12 -79 -15 -109 -4 -30 -9 -63 -11 -75
-2 -11 -6 -48 -9 -81 -3 -33 -8 -67 -10 -75 -2 -8 -7 -40 -11 -70 -3 -30 -8
-64 -9 -75 -9 -63 -15 -109 -25 -185 -6 -47 -13 -98 -15 -115 -3 -16 -11 -84
-20 -150 -9 -66 -18 -131 -20 -145 -6 -43 -14 -103 -20 -150 -3 -25 -7 -55 -9
-67 -3 -12 -7 -49 -11 -82 -3 -33 -7 -68 -9 -78 -2 -10 -7 -40 -10 -68 -4 -27
-9 -61 -11 -75 -5 -34 -23 -174 -30 -230 -3 -25 -12 -90 -19 -145 -8 -55 -18
-122 -21 -150 -4 -27 -8 -66 -11 -85 -3 -19 -7 -53 -9 -75 -3 -22 -7 -51 -10
-65 -2 -14 -7 -49 -10 -79 -4 -30 -8 -63 -11 -74 -2 -10 -6 -45 -10 -76 -3
-31 -8 -63 -9 -72 -2 -9 -6 -40 -10 -70 -3 -30 -8 -65 -10 -79 -2 -14 -11 -79
-20 -145 -22 -169 -22 -168 -39 -295 -9 -63 -18 -131 -20 -150 -3 -19 -12 -89
-21 -155 -9 -66 -18 -133 -20 -150 -2 -16 -6 -46 -9 -65 -6 -46 -45 -342 -53
-400 -3 -25 -6 -52 -8 -60 -1 -8 -6 -40 -10 -70 -3 -30 -8 -66 -10 -80 -33
-237 -32 -253 15 -319 16 -22 49 -50 71 -62 l42 -21 1073 0 c590 0 1077 3
1083 6 7 5 9 -8 4 -41 -9 -73 -6 -116 12 -159 20 -49 41 -71 90 -97 l40 -22
1060 -1 c583 -1 1075 2 1094 6 87 23 143 94 156 200 3 30 8 62 10 70 2 8 7 38
10 65 3 28 7 61 10 75 2 14 9 61 15 105 6 44 13 92 16 106 5 36 15 108 19 139
1 14 5 45 9 70 4 25 9 56 11 70 2 14 6 44 10 67 25 158 -3 236 -101 283 -44
22 -56 23 -367 24 -352 2 -362 3 -420 64 -28 30 -57 106 -52 137 2 11 6 49 10
85 3 36 7 79 9 95 4 27 9 79 21 190 5 46 12 107 20 180 3 28 8 70 10 95 3 25
7 61 10 80 3 19 7 62 10 95 3 33 7 76 10 95 4 36 11 91 20 173 8 71 14 128 19
172 3 22 8 69 11 105 3 36 10 99 15 140 5 41 12 100 15 130 10 105 16 155 20
190 2 19 7 60 10 90 3 30 8 71 10 90 2 19 7 60 10 90 3 30 8 71 10 90 2 19 11
103 20 185 9 83 18 164 20 180 2 17 7 55 10 85 3 30 7 71 9 90 3 19 8 64 11
100 4 36 8 72 10 80 1 8 6 49 10 90 3 41 8 86 10 100 2 14 7 52 10 85 3 33 7
71 10 85 2 14 7 57 10 95 3 39 8 84 10 100 7 49 21 168 30 268 3 37 8 76 10
85 1 9 6 51 10 92 4 41 9 89 11 105 2 17 6 53 9 80 3 28 8 70 11 95 15 134 13
167 -12 217 -26 53 -59 83 -113 101 -24 9 -180 12 -545 12 -570 0 -554 1 -623
-71 -35 -37 -46 -74 -63 -214 -6 -49 -13 -101 -15 -115 -2 -14 -6 -45 -9 -70
-3 -25 -8 -54 -10 -65 -2 -11 -7 -47 -10 -80 -8 -69 -15 -120 -21 -155 -2 -14
-7 -52 -10 -85 -4 -33 -8 -67 -11 -75 -3 -14 -7 -42 -19 -140 -4 -40 -8 -67
-20 -150 -2 -14 -7 -47 -10 -75 -4 -27 -8 -61 -10 -75 -6 -39 -37 -272 -40
-300 -1 -14 -5 -43 -8 -65 -4 -22 -9 -58 -11 -80 -6 -46 -16 -119 -21 -155 -7
-51 -15 -106 -20 -150 -4 -25 -8 -56 -10 -70 -4 -26 -7 -47 -25 -190 -6 -47
-13 -98 -16 -115 -2 -16 -6 -46 -8 -65 -3 -19 -12 -89 -21 -155 -8 -66 -18
-135 -20 -154 -10 -78 -16 -117 -20 -141 -3 -14 -7 -48 -10 -76 -2 -29 -6 -65
-9 -80 -5 -32 -22 -153 -31 -224 -4 -25 -8 -56 -10 -70 -2 -14 -6 -50 -10 -80
-4 -30 -8 -66 -10 -80 -3 -14 -7 -45 -10 -70 -4 -40 -8 -67 -20 -150 -2 -14
-7 -47 -10 -75 -4 -27 -8 -61 -10 -75 -2 -14 -9 -63 -15 -110 -6 -47 -13 -98
-15 -115 -3 -16 -9 -68 -15 -115 -7 -46 -14 -88 -16 -92 -3 -4 -17 -2 -32 4
-18 7 -139 12 -349 13 -311 2 -323 3 -368 25 -52 25 -89 75 -104 139 -5 22 -7
41 -6 43 2 2 6 35 9 73 4 39 8 86 11 105 3 19 7 57 10 84 2 26 6 65 9 85 3 20
8 68 11 106 4 39 9 78 11 88 1 10 6 50 9 90 3 39 8 83 10 97 2 14 6 54 10 90
3 36 8 72 10 80 2 8 7 48 10 89 4 41 8 83 10 92 2 10 7 53 10 96 4 43 8 85 10
93 2 14 10 86 20 180 7 65 17 155 20 180 2 14 11 93 20 175 9 83 18 168 20
190 17 145 25 217 30 270 3 33 8 74 10 90 2 17 7 59 10 95 3 36 8 76 10 90 2
14 6 54 10 90 3 36 8 76 10 90 3 14 7 56 11 93 3 37 7 77 9 88 2 11 7 51 10
89 3 38 8 78 10 89 2 11 6 51 10 88 3 37 8 84 10 103 3 19 7 58 10 85 6 54 14
122 20 170 2 17 6 63 10 103 3 41 8 81 10 91 2 9 6 48 10 86 3 39 8 81 10 95
2 14 6 50 10 80 3 30 7 69 9 85 13 103 20 189 21 247 0 58 -4 72 -31 110 -16
24 -50 54 -74 68 l-45 24 -508 1 c-316 0 -520 -3 -542 -10z"/>
</g>
</svg>
